<svg xmlns="http://www.w3.org/2000/svg" width="28" height="28" fill="none" class="only-dark-theme"><g clip-path="url(#logo-full_svg__a)"><path fill="#FF6363" fill-rule="evenodd" d="M7 18.073v2.921l-7-7 1.46-1.46L7 18.075Zm2.921 2.921H7l7 7 1.46-1.46-5.539-5.54Zm16.614-5.538 1.461-1.462-14-14-1.458 1.466 5.539 5.538H14.73L10.864 3.14 9.404 4.6l2.405 2.404h-1.68V17.87h10.865v-1.68l2.405 2.404 1.46-1.46-3.865-3.866V9.921l5.54 5.535ZM7.73 6.27 6.265 7.732l1.568 1.566 1.461-1.46L7.73 6.27Zm12.432 12.432-1.46 1.462 1.566 1.568 1.462-1.462-1.568-1.568ZM4.596 9.404l-1.462 1.462L7 14.732v-2.923L4.596 9.404ZM16.192 21h-2.924l3.866 3.866 1.462-1.462L16.192 21Z" clip-rule="evenodd" /></g><defs><clipPath id="logo-full_svg__a"><path fill="#fff" d="M0 0h108.059v28H0z" /></clipPath></defs></svg>
